<?xml version="1.0" encoding="UTF-8" standalone="no"?>
<!DOCTYPE svg PUBLIC "-//W3C//DTD SVG 1.1//EN"
 "http://www.w3.org/Graphics/SVG/1.1/DTD/svg11.dtd">
<!-- Generated by graphviz version 2.40.1 (20161225.0304)
 -->
<!-- Title: dependencies Pages: 1 -->
<svg width="504pt" height="211pt"
 viewBox="0.00 0.00 504.00 211.00" xmlns="http://www.w3.org/2000/svg" xmlns:xlink="http://www.w3.org/1999/xlink">
<g id="graph0" class="graph" transform="scale(1 1) rotate(0) translate(4 207)">
<title>dependencies</title>
<polygon fill="#ffffff" stroke="transparent" points="-4,4 -4,-207 500,-207 500,4 -4,4"/>
<text text-anchor="start" x="227.0091" y="-42.4" font-family="sans-serif" font-weight="bold" font-size="14.00" fill="#000000">Legend</text>
<polygon fill="#ffffb3" stroke="transparent" points="14,-10 14,-30 34,-30 34,-10 14,-10"/>
<text text-anchor="start" x="37.629" y="-15.4" font-family="sans-serif" font-size="14.00" fill="#000000"> &#160;Declarations</text>
<polygon fill="#8dd3c7" stroke="transparent" points="127,-10 127,-30 147,-30 147,-10 127,-10"/>
<text text-anchor="start" x="150.7251" y="-15.4" font-family="sans-serif" font-size="14.00" fill="#000000"> &#160;Module</text>
<polygon fill="#80b1d3" stroke="transparent" points="213,-10 213,-30 233,-30 233,-10 213,-10"/>
<text text-anchor="start" x="236.7812" y="-15.4" font-family="sans-serif" font-size="14.00" fill="#000000"> &#160;Bootstrap</text>
<polygon fill="#fdb462" stroke="transparent" points="310,-10 310,-30 330,-30 330,-10 310,-10"/>
<text text-anchor="start" x="333.6732" y="-15.4" font-family="sans-serif" font-size="14.00" fill="#000000"> &#160;Providers</text>
<polygon fill="#fb8072" stroke="transparent" points="406,-10 406,-30 426,-30 426,-10 406,-10"/>
<text text-anchor="start" x="429.7258" y="-15.4" font-family="sans-serif" font-size="14.00" fill="#000000"> &#160;Exports</text>
<g id="clust1" class="cluster">
<title>cluster_MetricsModule</title>
<polygon fill="none" stroke="#000000" stroke-dasharray="1,5" points="105,-70 105,-195 391,-195 391,-70 105,-70"/>
</g>
<g id="clust2" class="cluster">
<title>cluster_MetricsModule_declarations</title>
<polygon fill="none" stroke="#000000" points="235,-78 235,-130 383,-130 383,-78 235,-78"/>
</g>
<g id="clust4" class="cluster">
<title>cluster_MetricsModule_imports</title>
<polygon fill="none" stroke="#000000" points="113,-78 113,-130 227,-130 227,-78 113,-78"/>
</g>
<!-- DevStatsComponent -->
<g id="node1" class="node">
<title>DevStatsComponent</title>
<polygon fill="#ffffb3" stroke="#000000" points="374.8767,-122 243.1233,-122 243.1233,-86 374.8767,-86 374.8767,-122"/>
<text text-anchor="middle" x="309" y="-99.8" font-family="Times,serif" font-size="14.00" fill="#000000">DevStatsComponent</text>
</g>
<!-- MetricsModule -->
<g id="node2" class="node">
<title>MetricsModule</title>
<polygon fill="#8dd3c7" stroke="#000000" points="290.3105,-187 287.3105,-191 266.3105,-191 263.3105,-187 187.6895,-187 187.6895,-151 290.3105,-151 290.3105,-187"/>
<text text-anchor="middle" x="239" y="-164.8" font-family="Times,serif" font-size="14.00" fill="#000000">MetricsModule</text>
</g>
<!-- DevStatsComponent&#45;&gt;MetricsModule -->
<g id="edge1" class="edge">
<title>DevStatsComponent&#45;&gt;MetricsModule</title>
<path fill="none" stroke="#000000" d="M266.6083,-122.1061C266.6083,-122.1061 266.6083,-140.991 266.6083,-140.991"/>
<polygon fill="#000000" stroke="#000000" points="263.1084,-140.9909 266.6083,-150.991 270.1084,-140.991 263.1084,-140.9909"/>
</g>
<!-- SharedModule -->
<g id="node3" class="node">
<title>SharedModule</title>
<polygon fill="#8dd3c7" stroke="#000000" points="219.4231,-122 216.4231,-126 195.4231,-126 192.4231,-122 120.5769,-122 120.5769,-86 219.4231,-86 219.4231,-122"/>
<text text-anchor="middle" x="170" y="-99.8" font-family="Times,serif" font-size="14.00" fill="#000000">SharedModule</text>
</g>
<!-- SharedModule&#45;&gt;MetricsModule -->
<g id="edge2" class="edge">
<title>SharedModule&#45;&gt;MetricsModule</title>
<path fill="none" stroke="#000000" d="M203.5281,-122.1061C203.5281,-122.1061 203.5281,-140.991 203.5281,-140.991"/>
<polygon fill="#000000" stroke="#000000" points="200.0281,-140.9909 203.5281,-150.991 207.0281,-140.991 200.0281,-140.9909"/>
</g>
</g>
</svg>
