<?xml version="1.0" encoding="UTF-8" standalone="no"?>
<!DOCTYPE svg PUBLIC "-//W3C//DTD SVG 1.1//EN"
 "http://www.w3.org/Graphics/SVG/1.1/DTD/svg11.dtd">
<!-- Generated by graphviz version 2.40.1 (20161225.0304)
 -->
<!-- Title: dependencies Pages: 1 -->
<svg width="1304pt" height="284pt"
 viewBox="0.00 0.00 1304.00 284.00" xmlns="http://www.w3.org/2000/svg" xmlns:xlink="http://www.w3.org/1999/xlink">
<g id="graph0" class="graph" transform="scale(1 1) rotate(0) translate(4 280)">
<title>dependencies</title>
<polygon fill="#ffffff" stroke="transparent" points="-4,4 -4,-280 1300,-280 1300,4 -4,4"/>
<text text-anchor="start" x="627.0091" y="-42.4" font-family="sans-serif" font-weight="bold" font-size="14.00" fill="#000000">Legend</text>
<polygon fill="#ffffb3" stroke="transparent" points="414,-10 414,-30 434,-30 434,-10 414,-10"/>
<text text-anchor="start" x="437.629" y="-15.4" font-family="sans-serif" font-size="14.00" fill="#000000"> &#160;Declarations</text>
<polygon fill="#8dd3c7" stroke="transparent" points="527,-10 527,-30 547,-30 547,-10 527,-10"/>
<text text-anchor="start" x="550.7251" y="-15.4" font-family="sans-serif" font-size="14.00" fill="#000000"> &#160;Module</text>
<polygon fill="#80b1d3" stroke="transparent" points="613,-10 613,-30 633,-30 633,-10 613,-10"/>
<text text-anchor="start" x="636.7812" y="-15.4" font-family="sans-serif" font-size="14.00" fill="#000000"> &#160;Bootstrap</text>
<polygon fill="#fdb462" stroke="transparent" points="710,-10 710,-30 730,-30 730,-10 710,-10"/>
<text text-anchor="start" x="733.6732" y="-15.4" font-family="sans-serif" font-size="14.00" fill="#000000"> &#160;Providers</text>
<polygon fill="#fb8072" stroke="transparent" points="806,-10 806,-30 826,-30 826,-10 806,-10"/>
<text text-anchor="start" x="829.7258" y="-15.4" font-family="sans-serif" font-size="14.00" fill="#000000"> &#160;Exports</text>
<g id="clust1" class="cluster">
<title>cluster_CommentsModule</title>
<polygon fill="none" stroke="#000000" stroke-dasharray="1,5" points="8,-70 8,-268 1288,-268 1288,-70 8,-70"/>
</g>
<g id="clust2" class="cluster">
<title>cluster_CommentsModule_declarations</title>
<polygon fill="none" stroke="#000000" points="138,-78 138,-130 1280,-130 1280,-78 138,-78"/>
</g>
<g id="clust9" class="cluster">
<title>cluster_CommentsModule_imports</title>
<polygon fill="none" stroke="#000000" points="16,-78 16,-130 130,-130 130,-78 16,-78"/>
</g>
<g id="clust10" class="cluster">
<title>cluster_CommentsModule_exports</title>
<polygon fill="none" stroke="#000000" points="394,-208 394,-260 828,-260 828,-208 394,-208"/>
</g>
<!-- CommentFormatPipe -->
<g id="node1" class="node">
<title>CommentFormatPipe</title>
<polygon fill="#ffffb3" stroke="#000000" points="1272.0505,-122 1135.9495,-122 1135.9495,-86 1272.0505,-86 1272.0505,-122"/>
<text text-anchor="middle" x="1204" y="-99.8" font-family="Times,serif" font-size="14.00" fill="#000000">CommentFormatPipe</text>
</g>
<!-- CommentsModule -->
<g id="node7" class="node">
<title>CommentsModule</title>
<polygon fill="#8dd3c7" stroke="#000000" points="680.2176,-187 677.2176,-191 656.2176,-191 653.2176,-187 559.7824,-187 559.7824,-151 680.2176,-151 680.2176,-187"/>
<text text-anchor="middle" x="620" y="-164.8" font-family="Times,serif" font-size="14.00" fill="#000000">CommentsModule</text>
</g>
<!-- CommentFormatPipe&#45;&gt;CommentsModule -->
<g id="edge1" class="edge">
<title>CommentFormatPipe&#45;&gt;CommentsModule</title>
<path fill="none" stroke="#000000" d="M1204,-122.2843C1204,-143.3211 1204,-175 1204,-175 1204,-175 690.2986,-175 690.2986,-175"/>
<polygon fill="#000000" stroke="#000000" points="690.2987,-171.5001 680.2986,-175 690.2986,-178.5001 690.2987,-171.5001"/>
</g>
<!-- CrucibleCommentsComponent -->
<g id="node2" class="node">
<title>CrucibleCommentsComponent</title>
<polygon fill="#ffffb3" stroke="#000000" points="1118.2077,-122 927.7923,-122 927.7923,-86 1118.2077,-86 1118.2077,-122"/>
<text text-anchor="middle" x="1023" y="-99.8" font-family="Times,serif" font-size="14.00" fill="#000000">CrucibleCommentsComponent</text>
</g>
<!-- CrucibleCommentsComponent&#45;&gt;CommentsModule -->
<g id="edge2" class="edge">
<title>CrucibleCommentsComponent&#45;&gt;CommentsModule</title>
<path fill="none" stroke="#000000" d="M1023,-122.0225C1023,-139.3734 1023,-163 1023,-163 1023,-163 690.3332,-163 690.3332,-163"/>
<polygon fill="#000000" stroke="#000000" points="690.3332,-159.5001 680.3332,-163 690.3331,-166.5001 690.3332,-159.5001"/>
</g>
<!-- CrucibleCommentsModalComponent -->
<g id="node3" class="node">
<title>CrucibleCommentsModalComponent</title>
<polygon fill="#ffffb3" stroke="#000000" points="910.2575,-122 683.7425,-122 683.7425,-86 910.2575,-86 910.2575,-122"/>
<text text-anchor="middle" x="797" y="-99.8" font-family="Times,serif" font-size="14.00" fill="#000000">CrucibleCommentsModalComponent</text>
</g>
<!-- CrucibleCommentsModalComponent&#45;&gt;CommentsModule -->
<g id="edge3" class="edge">
<title>CrucibleCommentsModalComponent&#45;&gt;CommentsModule</title>
<path fill="none" stroke="#000000" d="M683.492,-104C676.9188,-104 672.9124,-104 672.9124,-104 672.9124,-104 672.9124,-140.8939 672.9124,-140.8939"/>
<polygon fill="#000000" stroke="#000000" points="669.4124,-140.8938 672.9124,-150.8939 676.4124,-140.8939 669.4124,-140.8938"/>
</g>
<!-- SafehtmlPipe -->
<g id="node4" class="node">
<title>SafehtmlPipe</title>
<polygon fill="#ffffb3" stroke="#000000" points="665.933,-122 574.067,-122 574.067,-86 665.933,-86 665.933,-122"/>
<text text-anchor="middle" x="620" y="-99.8" font-family="Times,serif" font-size="14.00" fill="#000000">SafehtmlPipe</text>
</g>
<!-- SafehtmlPipe&#45;&gt;CommentsModule -->
<g id="edge4" class="edge">
<title>SafehtmlPipe&#45;&gt;CommentsModule</title>
<path fill="none" stroke="#000000" d="M620,-122.1061C620,-122.1061 620,-140.991 620,-140.991"/>
<polygon fill="#000000" stroke="#000000" points="616.5001,-140.9909 620,-150.991 623.5001,-140.991 616.5001,-140.9909"/>
</g>
<!-- TicketCommentsComponent -->
<g id="node5" class="node">
<title>TicketCommentsComponent</title>
<polygon fill="#ffffb3" stroke="#000000" points="555.7632,-122 378.2368,-122 378.2368,-86 555.7632,-86 555.7632,-122"/>
<text text-anchor="middle" x="467" y="-99.8" font-family="Times,serif" font-size="14.00" fill="#000000">TicketCommentsComponent</text>
</g>
<!-- TicketCommentsComponent&#45;&gt;CommentsModule -->
<g id="edge5" class="edge">
<title>TicketCommentsComponent&#45;&gt;CommentsModule</title>
<path fill="none" stroke="#000000" d="M555.9941,-104C562.7977,-104 567.0876,-104 567.0876,-104 567.0876,-104 567.0876,-140.8939 567.0876,-140.8939"/>
<polygon fill="#000000" stroke="#000000" points="563.5877,-140.8938 567.0876,-150.8939 570.5877,-140.8939 563.5877,-140.8938"/>
</g>
<!-- TicketCommentsModalComponent -->
<g id="node6" class="node">
<title>TicketCommentsModalComponent</title>
<polygon fill="#ffffb3" stroke="#000000" points="360.313,-122 145.687,-122 145.687,-86 360.313,-86 360.313,-122"/>
<text text-anchor="middle" x="253" y="-99.8" font-family="Times,serif" font-size="14.00" fill="#000000">TicketCommentsModalComponent</text>
</g>
<!-- TicketCommentsModalComponent&#45;&gt;CommentsModule -->
<g id="edge6" class="edge">
<title>TicketCommentsModalComponent&#45;&gt;CommentsModule</title>
<path fill="none" stroke="#000000" d="M253,-122.0225C253,-139.3734 253,-163 253,-163 253,-163 549.8084,-163 549.8084,-163"/>
<polygon fill="#000000" stroke="#000000" points="549.8084,-166.5001 559.8084,-163 549.8083,-159.5001 549.8084,-166.5001"/>
</g>
<!-- TicketCommentsComponent  -->
<g id="node9" class="node">
<title>TicketCommentsComponent </title>
<polygon fill="#fb8072" stroke="#000000" points="819.7632,-252 638.2368,-252 638.2368,-216 819.7632,-216 819.7632,-252"/>
<text text-anchor="middle" x="729" y="-229.8" font-family="Times,serif" font-size="14.00" fill="#000000">TicketCommentsComponent </text>
</g>
<!-- CommentsModule&#45;&gt;TicketCommentsComponent  -->
<g id="edge8" class="edge">
<title>CommentsModule&#45;&gt;TicketCommentsComponent </title>
<path fill="none" stroke="#000000" stroke-dasharray="5,2" d="M659.2386,-187.1061C659.2386,-187.1061 659.2386,-205.991 659.2386,-205.991"/>
<polygon fill="#000000" stroke="#000000" points="655.7387,-205.9909 659.2386,-215.991 662.7387,-205.991 655.7387,-205.9909"/>
</g>
<!-- TicketCommentsModalComponent  -->
<g id="node10" class="node">
<title>TicketCommentsModalComponent </title>
<polygon fill="#fb8072" stroke="#000000" points="619.8129,-252 402.1871,-252 402.1871,-216 619.8129,-216 619.8129,-252"/>
<text text-anchor="middle" x="511" y="-229.8" font-family="Times,serif" font-size="14.00" fill="#000000">TicketCommentsModalComponent </text>
</g>
<!-- CommentsModule&#45;&gt;TicketCommentsModalComponent  -->
<g id="edge9" class="edge">
<title>CommentsModule&#45;&gt;TicketCommentsModalComponent </title>
<path fill="none" stroke="#000000" stroke-dasharray="5,2" d="M589.8989,-187.1061C589.8989,-187.1061 589.8989,-205.991 589.8989,-205.991"/>
<polygon fill="#000000" stroke="#000000" points="586.3989,-205.9909 589.8989,-215.991 593.3989,-205.991 586.3989,-205.9909"/>
</g>
<!-- SharedModule -->
<g id="node8" class="node">
<title>SharedModule</title>
<polygon fill="#8dd3c7" stroke="#000000" points="122.4231,-122 119.4231,-126 98.4231,-126 95.4231,-122 23.5769,-122 23.5769,-86 122.4231,-86 122.4231,-122"/>
<text text-anchor="middle" x="73" y="-99.8" font-family="Times,serif" font-size="14.00" fill="#000000">SharedModule</text>
</g>
<!-- SharedModule&#45;&gt;CommentsModule -->
<g id="edge7" class="edge">
<title>SharedModule&#45;&gt;CommentsModule</title>
<path fill="none" stroke="#000000" d="M73,-122.2843C73,-143.3211 73,-175 73,-175 73,-175 549.6343,-175 549.6343,-175"/>
<polygon fill="#000000" stroke="#000000" points="549.6343,-178.5001 559.6343,-175 549.6343,-171.5001 549.6343,-178.5001"/>
</g>
</g>
</svg>
