<?xml version="1.0" encoding="UTF-8" standalone="no"?>
<!DOCTYPE svg PUBLIC "-//W3C//DTD SVG 1.1//EN"
 "http://www.w3.org/Graphics/SVG/1.1/DTD/svg11.dtd">
<!-- Generated by graphviz version 2.40.1 (20161225.0304)
 -->
<!-- Title: dependencies Pages: 1 -->
<svg width="504pt" height="211pt"
 viewBox="0.00 0.00 504.00 211.00" xmlns="http://www.w3.org/2000/svg" xmlns:xlink="http://www.w3.org/1999/xlink">
<g id="graph0" class="graph" transform="scale(1 1) rotate(0) translate(4 207)">
<title>dependencies</title>
<polygon fill="#ffffff" stroke="transparent" points="-4,4 -4,-207 500,-207 500,4 -4,4"/>
<text text-anchor="start" x="227.0091" y="-42.4" font-family="sans-serif" font-weight="bold" font-size="14.00" fill="#000000">Legend</text>
<polygon fill="#ffffb3" stroke="transparent" points="14,-10 14,-30 34,-30 34,-10 14,-10"/>
<text text-anchor="start" x="37.629" y="-15.4" font-family="sans-serif" font-size="14.00" fill="#000000"> &#160;Declarations</text>
<polygon fill="#8dd3c7" stroke="transparent" points="127,-10 127,-30 147,-30 147,-10 127,-10"/>
<text text-anchor="start" x="150.7251" y="-15.4" font-family="sans-serif" font-size="14.00" fill="#000000"> &#160;Module</text>
<polygon fill="#80b1d3" stroke="transparent" points="213,-10 213,-30 233,-30 233,-10 213,-10"/>
<text text-anchor="start" x="236.7812" y="-15.4" font-family="sans-serif" font-size="14.00" fill="#000000"> &#160;Bootstrap</text>
<polygon fill="#fdb462" stroke="transparent" points="310,-10 310,-30 330,-30 330,-10 310,-10"/>
<text text-anchor="start" x="333.6732" y="-15.4" font-family="sans-serif" font-size="14.00" fill="#000000"> &#160;Providers</text>
<polygon fill="#fb8072" stroke="transparent" points="406,-10 406,-30 426,-30 426,-10 406,-10"/>
<text text-anchor="start" x="429.7258" y="-15.4" font-family="sans-serif" font-size="14.00" fill="#000000"> &#160;Exports</text>
<g id="clust1" class="cluster">
<title>cluster_OrderModule</title>
<polygon fill="none" stroke="#000000" stroke-dasharray="1,5" points="31,-70 31,-195 465,-195 465,-70 31,-70"/>
</g>
<g id="clust2" class="cluster">
<title>cluster_OrderModule_declarations</title>
<polygon fill="none" stroke="#000000" points="161,-78 161,-130 457,-130 457,-78 161,-78"/>
</g>
<g id="clust5" class="cluster">
<title>cluster_OrderModule_imports</title>
<polygon fill="none" stroke="#000000" points="39,-78 39,-130 153,-130 153,-78 39,-78"/>
</g>
<!-- EditOrdersComponent -->
<g id="node1" class="node">
<title>EditOrdersComponent</title>
<polygon fill="#ffffb3" stroke="#000000" points="449.2534,-122 306.7466,-122 306.7466,-86 449.2534,-86 449.2534,-122"/>
<text text-anchor="middle" x="378" y="-99.8" font-family="Times,serif" font-size="14.00" fill="#000000">EditOrdersComponent</text>
</g>
<!-- OrderModule -->
<g id="node3" class="node">
<title>OrderModule</title>
<polygon fill="#8dd3c7" stroke="#000000" points="275.1924,-187 272.1924,-191 251.1924,-191 248.1924,-187 182.8076,-187 182.8076,-151 275.1924,-151 275.1924,-187"/>
<text text-anchor="middle" x="229" y="-164.8" font-family="Times,serif" font-size="14.00" fill="#000000">OrderModule</text>
</g>
<!-- EditOrdersComponent&#45;&gt;OrderModule -->
<g id="edge1" class="edge">
<title>EditOrdersComponent&#45;&gt;OrderModule</title>
<path fill="none" stroke="#000000" d="M378,-122.1061C378,-141.3391 378,-169 378,-169 378,-169 285.3278,-169 285.3278,-169"/>
<polygon fill="#000000" stroke="#000000" points="285.3278,-165.5001 275.3278,-169 285.3277,-172.5001 285.3278,-165.5001"/>
</g>
<!-- OrdersComponent -->
<g id="node2" class="node">
<title>OrdersComponent</title>
<polygon fill="#ffffb3" stroke="#000000" points="288.9201,-122 169.0799,-122 169.0799,-86 288.9201,-86 288.9201,-122"/>
<text text-anchor="middle" x="229" y="-99.8" font-family="Times,serif" font-size="14.00" fill="#000000">OrdersComponent</text>
</g>
<!-- OrdersComponent&#45;&gt;OrderModule -->
<g id="edge2" class="edge">
<title>OrdersComponent&#45;&gt;OrderModule</title>
<path fill="none" stroke="#000000" d="M229,-122.1061C229,-122.1061 229,-140.991 229,-140.991"/>
<polygon fill="#000000" stroke="#000000" points="225.5001,-140.9909 229,-150.991 232.5001,-140.991 225.5001,-140.9909"/>
</g>
<!-- SharedModule -->
<g id="node4" class="node">
<title>SharedModule</title>
<polygon fill="#8dd3c7" stroke="#000000" points="145.4231,-122 142.4231,-126 121.4231,-126 118.4231,-122 46.5769,-122 46.5769,-86 145.4231,-86 145.4231,-122"/>
<text text-anchor="middle" x="96" y="-99.8" font-family="Times,serif" font-size="14.00" fill="#000000">SharedModule</text>
</g>
<!-- SharedModule&#45;&gt;OrderModule -->
<g id="edge3" class="edge">
<title>SharedModule&#45;&gt;OrderModule</title>
<path fill="none" stroke="#000000" d="M96,-122.1061C96,-141.3391 96,-169 96,-169 96,-169 172.8563,-169 172.8563,-169"/>
<polygon fill="#000000" stroke="#000000" points="172.8563,-172.5001 182.8563,-169 172.8563,-165.5001 172.8563,-172.5001"/>
</g>
</g>
</svg>
