<?xml version="1.0" encoding="UTF-8" standalone="no"?>
<!DOCTYPE svg PUBLIC "-//W3C//DTD SVG 1.1//EN"
 "http://www.w3.org/Graphics/SVG/1.1/DTD/svg11.dtd">
<!-- Generated by graphviz version 2.40.1 (20161225.0304)
 -->
<!-- Title: dependencies Pages: 1 -->
<svg width="2094pt" height="284pt"
 viewBox="0.00 0.00 2094.00 284.00" xmlns="http://www.w3.org/2000/svg" xmlns:xlink="http://www.w3.org/1999/xlink">
<g id="graph0" class="graph" transform="scale(1 1) rotate(0) translate(4 280)">
<title>dependencies</title>
<polygon fill="#ffffff" stroke="transparent" points="-4,4 -4,-280 2090,-280 2090,4 -4,4"/>
<text text-anchor="start" x="1022.0091" y="-42.4" font-family="sans-serif" font-weight="bold" font-size="14.00" fill="#000000">Legend</text>
<polygon fill="#ffffb3" stroke="transparent" points="809,-10 809,-30 829,-30 829,-10 809,-10"/>
<text text-anchor="start" x="832.629" y="-15.4" font-family="sans-serif" font-size="14.00" fill="#000000"> &#160;Declarations</text>
<polygon fill="#8dd3c7" stroke="transparent" points="922,-10 922,-30 942,-30 942,-10 922,-10"/>
<text text-anchor="start" x="945.7251" y="-15.4" font-family="sans-serif" font-size="14.00" fill="#000000"> &#160;Module</text>
<polygon fill="#80b1d3" stroke="transparent" points="1008,-10 1008,-30 1028,-30 1028,-10 1008,-10"/>
<text text-anchor="start" x="1031.7812" y="-15.4" font-family="sans-serif" font-size="14.00" fill="#000000"> &#160;Bootstrap</text>
<polygon fill="#fdb462" stroke="transparent" points="1105,-10 1105,-30 1125,-30 1125,-10 1105,-10"/>
<text text-anchor="start" x="1128.6732" y="-15.4" font-family="sans-serif" font-size="14.00" fill="#000000"> &#160;Providers</text>
<polygon fill="#fb8072" stroke="transparent" points="1201,-10 1201,-30 1221,-30 1221,-10 1201,-10"/>
<text text-anchor="start" x="1224.7258" y="-15.4" font-family="sans-serif" font-size="14.00" fill="#000000"> &#160;Exports</text>
<g id="clust1" class="cluster">
<title>cluster_NavbarModule</title>
<polygon fill="none" stroke="#000000" stroke-dasharray="1,5" points="8,-70 8,-268 2078,-268 2078,-70 8,-70"/>
</g>
<g id="clust2" class="cluster">
<title>cluster_NavbarModule_declarations</title>
<polygon fill="none" stroke="#000000" points="138,-78 138,-130 2070,-130 2070,-78 138,-78"/>
</g>
<g id="clust14" class="cluster">
<title>cluster_NavbarModule_imports</title>
<polygon fill="none" stroke="#000000" points="16,-78 16,-130 130,-130 130,-78 16,-78"/>
</g>
<g id="clust15" class="cluster">
<title>cluster_NavbarModule_exports</title>
<polygon fill="none" stroke="#000000" points="782,-208 782,-260 1100,-260 1100,-208 782,-208"/>
</g>
<!-- DropdownMenuComponent -->
<g id="node1" class="node">
<title>DropdownMenuComponent</title>
<polygon fill="#ffffb3" stroke="#000000" points="2061.8655,-122 1888.1345,-122 1888.1345,-86 2061.8655,-86 2061.8655,-122"/>
<text text-anchor="middle" x="1975" y="-99.8" font-family="Times,serif" font-size="14.00" fill="#000000">DropdownMenuComponent</text>
</g>
<!-- NavbarModule -->
<g id="node12" class="node">
<title>NavbarModule</title>
<polygon fill="#8dd3c7" stroke="#000000" points="998.2465,-187 995.2465,-191 974.2465,-191 971.2465,-187 897.7535,-187 897.7535,-151 998.2465,-151 998.2465,-187"/>
<text text-anchor="middle" x="948" y="-164.8" font-family="Times,serif" font-size="14.00" fill="#000000">NavbarModule</text>
</g>
<!-- DropdownMenuComponent&#45;&gt;NavbarModule -->
<g id="edge1" class="edge">
<title>DropdownMenuComponent&#45;&gt;NavbarModule</title>
<path fill="none" stroke="#000000" d="M1975,-122.2479C1975,-145.0179 1975,-181 1975,-181 1975,-181 1008.5788,-181 1008.5788,-181"/>
<polygon fill="#000000" stroke="#000000" points="1008.5788,-177.5001 998.5788,-181 1008.5788,-184.5001 1008.5788,-177.5001"/>
</g>
<!-- DropdownSubmenuComponent -->
<g id="node2" class="node">
<title>DropdownSubmenuComponent</title>
<polygon fill="#ffffb3" stroke="#000000" points="1870.094,-122 1675.906,-122 1675.906,-86 1870.094,-86 1870.094,-122"/>
<text text-anchor="middle" x="1773" y="-99.8" font-family="Times,serif" font-size="14.00" fill="#000000">DropdownSubmenuComponent</text>
</g>
<!-- DropdownSubmenuComponent&#45;&gt;NavbarModule -->
<g id="edge2" class="edge">
<title>DropdownSubmenuComponent&#45;&gt;NavbarModule</title>
<path fill="none" stroke="#000000" d="M1773,-122.2843C1773,-143.3211 1773,-175 1773,-175 1773,-175 1008.3655,-175 1008.3655,-175"/>
<polygon fill="#000000" stroke="#000000" points="1008.3656,-171.5001 998.3655,-175 1008.3655,-178.5001 1008.3656,-171.5001"/>
</g>
<!-- DropdownSubmenuDirective -->
<g id="node3" class="node">
<title>DropdownSubmenuDirective</title>
<polygon fill="#ffffb3" stroke="#000000" points="1658.3445,-122 1477.6555,-122 1477.6555,-86 1658.3445,-86 1658.3445,-122"/>
<text text-anchor="middle" x="1568" y="-99.8" font-family="Times,serif" font-size="14.00" fill="#000000">DropdownSubmenuDirective</text>
</g>
<!-- DropdownSubmenuDirective&#45;&gt;NavbarModule -->
<g id="edge3" class="edge">
<title>DropdownSubmenuDirective&#45;&gt;NavbarModule</title>
<path fill="none" stroke="#000000" d="M1568,-122.1061C1568,-141.3391 1568,-169 1568,-169 1568,-169 1008.4743,-169 1008.4743,-169"/>
<polygon fill="#000000" stroke="#000000" points="1008.4744,-165.5001 998.4743,-169 1008.4743,-172.5001 1008.4744,-165.5001"/>
</g>
<!-- DropdownSubmenuMenuDirective -->
<g id="node4" class="node">
<title>DropdownSubmenuMenuDirective</title>
<polygon fill="#ffffb3" stroke="#000000" points="1459.5042,-122 1246.4958,-122 1246.4958,-86 1459.5042,-86 1459.5042,-122"/>
<text text-anchor="middle" x="1353" y="-99.8" font-family="Times,serif" font-size="14.00" fill="#000000">DropdownSubmenuMenuDirective</text>
</g>
<!-- DropdownSubmenuMenuDirective&#45;&gt;NavbarModule -->
<g id="edge4" class="edge">
<title>DropdownSubmenuMenuDirective&#45;&gt;NavbarModule</title>
<path fill="none" stroke="#000000" d="M1353,-122.0225C1353,-139.3734 1353,-163 1353,-163 1353,-163 1008.4747,-163 1008.4747,-163"/>
<polygon fill="#000000" stroke="#000000" points="1008.4747,-159.5001 998.4747,-163 1008.4746,-166.5001 1008.4747,-159.5001"/>
</g>
<!-- JqlLinksComponent -->
<g id="node5" class="node">
<title>JqlLinksComponent</title>
<polygon fill="#ffffb3" stroke="#000000" points="1227.5562,-122 1098.4438,-122 1098.4438,-86 1227.5562,-86 1227.5562,-122"/>
<text text-anchor="middle" x="1163" y="-99.8" font-family="Times,serif" font-size="14.00" fill="#000000">JqlLinksComponent</text>
</g>
<!-- JqlLinksComponent&#45;&gt;NavbarModule -->
<g id="edge5" class="edge">
<title>JqlLinksComponent&#45;&gt;NavbarModule</title>
<path fill="none" stroke="#000000" d="M1163,-122.2396C1163,-137.5706 1163,-157 1163,-157 1163,-157 1008.4079,-157 1008.4079,-157"/>
<polygon fill="#000000" stroke="#000000" points="1008.408,-153.5001 998.4079,-157 1008.4079,-160.5001 1008.408,-153.5001"/>
</g>
<!-- LogoutComponent -->
<g id="node6" class="node">
<title>LogoutComponent</title>
<polygon fill="#ffffb3" stroke="#000000" points="1079.7758,-122 958.2242,-122 958.2242,-86 1079.7758,-86 1079.7758,-122"/>
<text text-anchor="middle" x="1019" y="-99.8" font-family="Times,serif" font-size="14.00" fill="#000000">LogoutComponent</text>
</g>
<!-- LogoutComponent&#45;&gt;NavbarModule -->
<g id="edge6" class="edge">
<title>LogoutComponent&#45;&gt;NavbarModule</title>
<path fill="none" stroke="#000000" d="M978.2427,-122.1061C978.2427,-122.1061 978.2427,-140.991 978.2427,-140.991"/>
<polygon fill="#000000" stroke="#000000" points="974.7427,-140.9909 978.2427,-150.991 981.7427,-140.991 974.7427,-140.9909"/>
</g>
<!-- NavBarComponent -->
<g id="node7" class="node">
<title>NavBarComponent</title>
<polygon fill="#ffffb3" stroke="#000000" points="940.3655,-122 815.6345,-122 815.6345,-86 940.3655,-86 940.3655,-122"/>
<text text-anchor="middle" x="878" y="-99.8" font-family="Times,serif" font-size="14.00" fill="#000000">NavBarComponent</text>
</g>
<!-- NavBarComponent&#45;&gt;NavbarModule -->
<g id="edge7" class="edge">
<title>NavBarComponent&#45;&gt;NavbarModule</title>
<path fill="none" stroke="#000000" d="M919.0298,-122.1061C919.0298,-122.1061 919.0298,-140.991 919.0298,-140.991"/>
<polygon fill="#000000" stroke="#000000" points="915.5299,-140.9909 919.0298,-150.991 922.5299,-140.991 915.5299,-140.9909"/>
</g>
<!-- NavbarModalComponent -->
<g id="node8" class="node">
<title>NavbarModalComponent</title>
<polygon fill="#ffffb3" stroke="#000000" points="797.5786,-122 638.4214,-122 638.4214,-86 797.5786,-86 797.5786,-122"/>
<text text-anchor="middle" x="718" y="-99.8" font-family="Times,serif" font-size="14.00" fill="#000000">NavbarModalComponent</text>
</g>
<!-- NavbarModalComponent&#45;&gt;NavbarModule -->
<g id="edge8" class="edge">
<title>NavbarModalComponent&#45;&gt;NavbarModule</title>
<path fill="none" stroke="#000000" d="M793.6766,-122.2396C793.6766,-137.5706 793.6766,-157 793.6766,-157 793.6766,-157 887.4687,-157 887.4687,-157"/>
<polygon fill="#000000" stroke="#000000" points="887.4688,-160.5001 897.4687,-157 887.4687,-153.5001 887.4688,-160.5001"/>
</g>
<!-- NavbarUserComponent -->
<g id="node9" class="node">
<title>NavbarUserComponent</title>
<polygon fill="#ffffb3" stroke="#000000" points="620.4552,-122 471.5448,-122 471.5448,-86 620.4552,-86 620.4552,-122"/>
<text text-anchor="middle" x="546" y="-99.8" font-family="Times,serif" font-size="14.00" fill="#000000">NavbarUserComponent</text>
</g>
<!-- NavbarUserComponent&#45;&gt;NavbarModule -->
<g id="edge9" class="edge">
<title>NavbarUserComponent&#45;&gt;NavbarModule</title>
<path fill="none" stroke="#000000" d="M546,-122.0225C546,-139.3734 546,-163 546,-163 546,-163 887.4935,-163 887.4935,-163"/>
<polygon fill="#000000" stroke="#000000" points="887.4935,-166.5001 897.4935,-163 887.4934,-159.5001 887.4935,-166.5001"/>
</g>
<!-- SearchbarComponent -->
<g id="node10" class="node">
<title>SearchbarComponent</title>
<polygon fill="#ffffb3" stroke="#000000" points="453.7949,-122 316.2051,-122 316.2051,-86 453.7949,-86 453.7949,-122"/>
<text text-anchor="middle" x="385" y="-99.8" font-family="Times,serif" font-size="14.00" fill="#000000">SearchbarComponent</text>
</g>
<!-- SearchbarComponent&#45;&gt;NavbarModule -->
<g id="edge10" class="edge">
<title>SearchbarComponent&#45;&gt;NavbarModule</title>
<path fill="none" stroke="#000000" d="M385,-122.1061C385,-141.3391 385,-169 385,-169 385,-169 887.542,-169 887.542,-169"/>
<polygon fill="#000000" stroke="#000000" points="887.5421,-172.5001 897.542,-169 887.542,-165.5001 887.5421,-172.5001"/>
</g>
<!-- UserSettingsComponent -->
<g id="node11" class="node">
<title>UserSettingsComponent</title>
<polygon fill="#ffffb3" stroke="#000000" points="298.3725,-122 145.6275,-122 145.6275,-86 298.3725,-86 298.3725,-122"/>
<text text-anchor="middle" x="222" y="-99.8" font-family="Times,serif" font-size="14.00" fill="#000000">UserSettingsComponent</text>
</g>
<!-- UserSettingsComponent&#45;&gt;NavbarModule -->
<g id="edge11" class="edge">
<title>UserSettingsComponent&#45;&gt;NavbarModule</title>
<path fill="none" stroke="#000000" d="M222,-122.2843C222,-143.3211 222,-175 222,-175 222,-175 887.5255,-175 887.5255,-175"/>
<polygon fill="#000000" stroke="#000000" points="887.5255,-178.5001 897.5255,-175 887.5255,-171.5001 887.5255,-178.5001"/>
</g>
<!-- NavBarComponent  -->
<g id="node14" class="node">
<title>NavBarComponent </title>
<polygon fill="#fb8072" stroke="#000000" points="1092.3659,-252 963.6341,-252 963.6341,-216 1092.3659,-216 1092.3659,-252"/>
<text text-anchor="middle" x="1028" y="-229.8" font-family="Times,serif" font-size="14.00" fill="#000000">NavBarComponent </text>
</g>
<!-- NavbarModule&#45;&gt;NavBarComponent  -->
<g id="edge13" class="edge">
<title>NavbarModule&#45;&gt;NavBarComponent </title>
<path fill="none" stroke="#000000" stroke-dasharray="5,2" d="M981.0952,-187.1061C981.0952,-187.1061 981.0952,-205.991 981.0952,-205.991"/>
<polygon fill="#000000" stroke="#000000" points="977.5953,-205.9909 981.0952,-215.991 984.5953,-205.991 977.5953,-205.9909"/>
</g>
<!-- UserSettingsComponent  -->
<g id="node15" class="node">
<title>UserSettingsComponent </title>
<polygon fill="#fb8072" stroke="#000000" points="946.3728,-252 789.6272,-252 789.6272,-216 946.3728,-216 946.3728,-252"/>
<text text-anchor="middle" x="868" y="-229.8" font-family="Times,serif" font-size="14.00" fill="#000000">UserSettingsComponent </text>
</g>
<!-- NavbarModule&#45;&gt;UserSettingsComponent  -->
<g id="edge14" class="edge">
<title>NavbarModule&#45;&gt;UserSettingsComponent </title>
<path fill="none" stroke="#000000" stroke-dasharray="5,2" d="M921.9066,-187.1061C921.9066,-187.1061 921.9066,-205.991 921.9066,-205.991"/>
<polygon fill="#000000" stroke="#000000" points="918.4066,-205.9909 921.9066,-215.991 925.4066,-205.991 918.4066,-205.9909"/>
</g>
<!-- SharedModule -->
<g id="node13" class="node">
<title>SharedModule</title>
<polygon fill="#8dd3c7" stroke="#000000" points="122.4231,-122 119.4231,-126 98.4231,-126 95.4231,-122 23.5769,-122 23.5769,-86 122.4231,-86 122.4231,-122"/>
<text text-anchor="middle" x="73" y="-99.8" font-family="Times,serif" font-size="14.00" fill="#000000">SharedModule</text>
</g>
<!-- SharedModule&#45;&gt;NavbarModule -->
<g id="edge12" class="edge">
<title>SharedModule&#45;&gt;NavbarModule</title>
<path fill="none" stroke="#000000" d="M73,-122.2479C73,-145.0179 73,-181 73,-181 73,-181 887.4943,-181 887.4943,-181"/>
<polygon fill="#000000" stroke="#000000" points="887.4943,-184.5001 897.4943,-181 887.4943,-177.5001 887.4943,-184.5001"/>
</g>
</g>
</svg>
