<?xml version="1.0" encoding="UTF-8" standalone="no"?>
<!DOCTYPE svg PUBLIC "-//W3C//DTD SVG 1.1//EN"
 "http://www.w3.org/Graphics/SVG/1.1/DTD/svg11.dtd">
<!-- Generated by graphviz version 2.40.1 (20161225.0304)
 -->
<!-- Title: dependencies Pages: 1 -->
<svg width="1151pt" height="284pt"
 viewBox="0.00 0.00 1151.00 284.00" xmlns="http://www.w3.org/2000/svg" xmlns:xlink="http://www.w3.org/1999/xlink">
<g id="graph0" class="graph" transform="scale(1 1) rotate(0) translate(4 280)">
<title>dependencies</title>
<polygon fill="#ffffff" stroke="transparent" points="-4,4 -4,-280 1147,-280 1147,4 -4,4"/>
<text text-anchor="start" x="550.5091" y="-42.4" font-family="sans-serif" font-weight="bold" font-size="14.00" fill="#000000">Legend</text>
<polygon fill="#ffffb3" stroke="transparent" points="337.5,-10 337.5,-30 357.5,-30 357.5,-10 337.5,-10"/>
<text text-anchor="start" x="361.129" y="-15.4" font-family="sans-serif" font-size="14.00" fill="#000000"> &#160;Declarations</text>
<polygon fill="#8dd3c7" stroke="transparent" points="450.5,-10 450.5,-30 470.5,-30 470.5,-10 450.5,-10"/>
<text text-anchor="start" x="474.2251" y="-15.4" font-family="sans-serif" font-size="14.00" fill="#000000"> &#160;Module</text>
<polygon fill="#80b1d3" stroke="transparent" points="536.5,-10 536.5,-30 556.5,-30 556.5,-10 536.5,-10"/>
<text text-anchor="start" x="560.2812" y="-15.4" font-family="sans-serif" font-size="14.00" fill="#000000"> &#160;Bootstrap</text>
<polygon fill="#fdb462" stroke="transparent" points="633.5,-10 633.5,-30 653.5,-30 653.5,-10 633.5,-10"/>
<text text-anchor="start" x="657.1732" y="-15.4" font-family="sans-serif" font-size="14.00" fill="#000000"> &#160;Providers</text>
<polygon fill="#fb8072" stroke="transparent" points="729.5,-10 729.5,-30 749.5,-30 749.5,-10 729.5,-10"/>
<text text-anchor="start" x="753.2258" y="-15.4" font-family="sans-serif" font-size="14.00" fill="#000000"> &#160;Exports</text>
<g id="clust1" class="cluster">
<title>cluster_AppModule</title>
<polygon fill="none" stroke="#000000" stroke-dasharray="1,5" points="8,-70 8,-268 1135,-268 1135,-70 8,-70"/>
</g>
<g id="clust2" class="cluster">
<title>cluster_AppModule_declarations</title>
<polygon fill="none" stroke="#000000" points="869,-78 869,-130 1127,-130 1127,-78 869,-78"/>
</g>
<g id="clust5" class="cluster">
<title>cluster_AppModule_imports</title>
<polygon fill="none" stroke="#000000" points="146,-78 146,-130 861,-130 861,-78 146,-78"/>
</g>
<g id="clust7" class="cluster">
<title>cluster_AppModule_bootstrap</title>
<polygon fill="none" stroke="#000000" points="482,-208 482,-260 606,-260 606,-208 482,-208"/>
</g>
<g id="clust8" class="cluster">
<title>cluster_AppModule_providers</title>
<polygon fill="none" stroke="#000000" points="16,-78 16,-130 138,-130 138,-78 16,-78"/>
</g>
<!-- AppComponent -->
<g id="node1" class="node">
<title>AppComponent</title>
<polygon fill="#ffffb3" stroke="#000000" points="1118.9399,-122 1013.0601,-122 1013.0601,-86 1118.9399,-86 1118.9399,-122"/>
<text text-anchor="middle" x="1066" y="-99.8" font-family="Times,serif" font-size="14.00" fill="#000000">AppComponent</text>
</g>
<!-- AppModule -->
<g id="node3" class="node">
<title>AppModule</title>
<polygon fill="#8dd3c7" stroke="#000000" points="585.6571,-187 582.6571,-191 561.6571,-191 558.6571,-187 502.3429,-187 502.3429,-151 585.6571,-151 585.6571,-187"/>
<text text-anchor="middle" x="544" y="-164.8" font-family="Times,serif" font-size="14.00" fill="#000000">AppModule</text>
</g>
<!-- AppComponent&#45;&gt;AppModule -->
<g id="edge1" class="edge">
<title>AppComponent&#45;&gt;AppModule</title>
<path fill="none" stroke="#000000" d="M1066,-122.0109C1066,-144.4852 1066,-180 1066,-180 1066,-180 595.8351,-180 595.8351,-180"/>
<polygon fill="#000000" stroke="#000000" points="595.8351,-176.5001 585.8351,-180 595.835,-183.5001 595.8351,-176.5001"/>
</g>
<!-- FooterComponent -->
<g id="node2" class="node">
<title>FooterComponent</title>
<polygon fill="#ffffb3" stroke="#000000" points="994.8809,-122 877.1191,-122 877.1191,-86 994.8809,-86 994.8809,-122"/>
<text text-anchor="middle" x="936" y="-99.8" font-family="Times,serif" font-size="14.00" fill="#000000">FooterComponent</text>
</g>
<!-- FooterComponent&#45;&gt;AppModule -->
<g id="edge2" class="edge">
<title>FooterComponent&#45;&gt;AppModule</title>
<path fill="none" stroke="#000000" d="M936,-122.1289C936,-142.5724 936,-173 936,-173 936,-173 595.9509,-173 595.9509,-173"/>
<polygon fill="#000000" stroke="#000000" points="595.9509,-169.5001 585.9509,-173 595.9508,-176.5001 595.9509,-169.5001"/>
</g>
<!-- AppComponent  -->
<g id="node10" class="node">
<title>AppComponent </title>
<polygon fill="#80b1d3" stroke="#000000" points="598.439,-252 489.561,-252 489.561,-216 598.439,-216 598.439,-252"/>
<text text-anchor="middle" x="544" y="-229.8" font-family="Times,serif" font-size="14.00" fill="#000000">AppComponent </text>
</g>
<!-- AppModule&#45;&gt;AppComponent  -->
<g id="edge9" class="edge">
<title>AppModule&#45;&gt;AppComponent </title>
<path fill="none" stroke="#000000" stroke-dasharray="1,5" d="M544,-187.1061C544,-187.1061 544,-205.991 544,-205.991"/>
<polygon fill="#000000" stroke="#000000" points="540.5001,-205.9909 544,-215.991 547.5001,-205.991 540.5001,-205.9909"/>
</g>
<!-- CommentsModule -->
<g id="node4" class="node">
<title>CommentsModule</title>
<polygon fill="#8dd3c7" stroke="#000000" points="853.2176,-122 850.2176,-126 829.2176,-126 826.2176,-122 732.7824,-122 732.7824,-86 853.2176,-86 853.2176,-122"/>
<text text-anchor="middle" x="793" y="-99.8" font-family="Times,serif" font-size="14.00" fill="#000000">CommentsModule</text>
</g>
<!-- CommentsModule&#45;&gt;AppModule -->
<g id="edge3" class="edge">
<title>CommentsModule&#45;&gt;AppModule</title>
<path fill="none" stroke="#000000" d="M793,-122.2667C793,-140.5552 793,-166 793,-166 793,-166 595.677,-166 595.677,-166"/>
<polygon fill="#000000" stroke="#000000" points="595.677,-162.5001 585.677,-166 595.677,-169.5001 595.677,-162.5001"/>
</g>
<!-- MetricsModule -->
<g id="node5" class="node">
<title>MetricsModule</title>
<polygon fill="#8dd3c7" stroke="#000000" points="715.3105,-122 712.3105,-126 691.3105,-126 688.3105,-122 612.6895,-122 612.6895,-86 715.3105,-86 715.3105,-122"/>
<text text-anchor="middle" x="664" y="-99.8" font-family="Times,serif" font-size="14.00" fill="#000000">MetricsModule</text>
</g>
<!-- MetricsModule&#45;&gt;AppModule -->
<g id="edge4" class="edge">
<title>MetricsModule&#45;&gt;AppModule</title>
<path fill="none" stroke="#000000" d="M664,-122.0091C664,-138.0494 664,-159 664,-159 664,-159 595.9702,-159 595.9702,-159"/>
<polygon fill="#000000" stroke="#000000" points="595.9702,-155.5001 585.9702,-159 595.9701,-162.5001 595.9702,-155.5001"/>
</g>
<!-- NavbarModule -->
<g id="node6" class="node">
<title>NavbarModule</title>
<polygon fill="#8dd3c7" stroke="#000000" points="594.2465,-122 591.2465,-126 570.2465,-126 567.2465,-122 493.7535,-122 493.7535,-86 594.2465,-86 594.2465,-122"/>
<text text-anchor="middle" x="544" y="-99.8" font-family="Times,serif" font-size="14.00" fill="#000000">NavbarModule</text>
</g>
<!-- NavbarModule&#45;&gt;AppModule -->
<g id="edge5" class="edge">
<title>NavbarModule&#45;&gt;AppModule</title>
<path fill="none" stroke="#000000" d="M544,-122.1061C544,-122.1061 544,-140.991 544,-140.991"/>
<polygon fill="#000000" stroke="#000000" points="540.5001,-140.9909 544,-150.991 547.5001,-140.991 540.5001,-140.9909"/>
</g>
<!-- OrderModule -->
<g id="node7" class="node">
<title>OrderModule</title>
<polygon fill="#8dd3c7" stroke="#000000" points="476.1924,-122 473.1924,-126 452.1924,-126 449.1924,-122 383.8076,-122 383.8076,-86 476.1924,-86 476.1924,-122"/>
<text text-anchor="middle" x="430" y="-99.8" font-family="Times,serif" font-size="14.00" fill="#000000">OrderModule</text>
</g>
<!-- OrderModule&#45;&gt;AppModule -->
<g id="edge6" class="edge">
<title>OrderModule&#45;&gt;AppModule</title>
<path fill="none" stroke="#000000" d="M430,-122.0091C430,-138.0494 430,-159 430,-159 430,-159 492.1979,-159 492.1979,-159"/>
<polygon fill="#000000" stroke="#000000" points="492.198,-162.5001 502.1979,-159 492.1979,-155.5001 492.198,-162.5001"/>
</g>
<!-- SharedModule -->
<g id="node8" class="node">
<title>SharedModule</title>
<polygon fill="#8dd3c7" stroke="#000000" points="366.4231,-122 363.4231,-126 342.4231,-126 339.4231,-122 267.5769,-122 267.5769,-86 366.4231,-86 366.4231,-122"/>
<text text-anchor="middle" x="317" y="-99.8" font-family="Times,serif" font-size="14.00" fill="#000000">SharedModule</text>
</g>
<!-- SharedModule&#45;&gt;AppModule -->
<g id="edge7" class="edge">
<title>SharedModule&#45;&gt;AppModule</title>
<path fill="none" stroke="#000000" d="M317,-122.2667C317,-140.5552 317,-166 317,-166 317,-166 492.1002,-166 492.1002,-166"/>
<polygon fill="#000000" stroke="#000000" points="492.1002,-169.5001 502.1002,-166 492.1001,-162.5001 492.1002,-169.5001"/>
</g>
<!-- TicketModule -->
<g id="node9" class="node">
<title>TicketModule</title>
<polygon fill="#8dd3c7" stroke="#000000" points="249.8133,-122 246.8133,-126 225.8133,-126 222.8133,-122 154.1867,-122 154.1867,-86 249.8133,-86 249.8133,-122"/>
<text text-anchor="middle" x="202" y="-99.8" font-family="Times,serif" font-size="14.00" fill="#000000">TicketModule</text>
</g>
<!-- TicketModule&#45;&gt;AppModule -->
<g id="edge8" class="edge">
<title>TicketModule&#45;&gt;AppModule</title>
<path fill="none" stroke="#000000" d="M202,-122.1289C202,-142.5724 202,-173 202,-173 202,-173 492.0641,-173 492.0641,-173"/>
<polygon fill="#000000" stroke="#000000" points="492.0641,-176.5001 502.0641,-173 492.0641,-169.5001 492.0641,-176.5001"/>
</g>
<!-- InitService -->
<g id="node11" class="node">
<title>InitService</title>
<ellipse fill="#fdb462" stroke="#000000" cx="77" cy="-104" rx="53.3052" ry="18"/>
<text text-anchor="middle" x="77" y="-99.8" font-family="Times,serif" font-size="14.00" fill="#000000">InitService</text>
</g>
<!-- InitService&#45;&gt;AppModule -->
<g id="edge10" class="edge">
<title>InitService&#45;&gt;AppModule</title>
<path fill="none" stroke="#000000" d="M77,-122.0109C77,-144.4852 77,-180 77,-180 77,-180 492.1459,-180 492.1459,-180"/>
<polygon fill="#000000" stroke="#000000" points="492.1459,-183.5001 502.1459,-180 492.1458,-176.5001 492.1459,-183.5001"/>
</g>
</g>
</svg>
