<?xml version="1.0" encoding="UTF-8" standalone="no"?>
<!DOCTYPE svg PUBLIC "-//W3C//DTD SVG 1.1//EN"
 "http://www.w3.org/Graphics/SVG/1.1/DTD/svg11.dtd">
<!-- Generated by graphviz version 2.40.1 (20161225.0304)
 -->
<!-- Title: dependencies Pages: 1 -->
<svg width="985pt" height="284pt"
 viewBox="0.00 0.00 985.00 284.00" xmlns="http://www.w3.org/2000/svg" xmlns:xlink="http://www.w3.org/1999/xlink">
<g id="graph0" class="graph" transform="scale(1 1) rotate(0) translate(4 280)">
<title>dependencies</title>
<polygon fill="#ffffff" stroke="transparent" points="-4,4 -4,-280 981,-280 981,4 -4,4"/>
<text text-anchor="start" x="467.5091" y="-42.4" font-family="sans-serif" font-weight="bold" font-size="14.00" fill="#000000">Legend</text>
<polygon fill="#ffffb3" stroke="transparent" points="254.5,-10 254.5,-30 274.5,-30 274.5,-10 254.5,-10"/>
<text text-anchor="start" x="278.129" y="-15.4" font-family="sans-serif" font-size="14.00" fill="#000000"> &#160;Declarations</text>
<polygon fill="#8dd3c7" stroke="transparent" points="367.5,-10 367.5,-30 387.5,-30 387.5,-10 367.5,-10"/>
<text text-anchor="start" x="391.2251" y="-15.4" font-family="sans-serif" font-size="14.00" fill="#000000"> &#160;Module</text>
<polygon fill="#80b1d3" stroke="transparent" points="453.5,-10 453.5,-30 473.5,-30 473.5,-10 453.5,-10"/>
<text text-anchor="start" x="477.2812" y="-15.4" font-family="sans-serif" font-size="14.00" fill="#000000"> &#160;Bootstrap</text>
<polygon fill="#fdb462" stroke="transparent" points="550.5,-10 550.5,-30 570.5,-30 570.5,-10 550.5,-10"/>
<text text-anchor="start" x="574.1732" y="-15.4" font-family="sans-serif" font-size="14.00" fill="#000000"> &#160;Providers</text>
<polygon fill="#fb8072" stroke="transparent" points="646.5,-10 646.5,-30 666.5,-30 666.5,-10 646.5,-10"/>
<text text-anchor="start" x="670.2258" y="-15.4" font-family="sans-serif" font-size="14.00" fill="#000000"> &#160;Exports</text>
<g id="clust1" class="cluster">
<title>cluster_SharedModule</title>
<polygon fill="none" stroke="#000000" stroke-dasharray="1,5" points="8,-70 8,-268 969,-268 969,-70 8,-70"/>
</g>
<g id="clust2" class="cluster">
<title>cluster_SharedModule_declarations</title>
<polygon fill="none" stroke="#000000" points="29,-78 29,-130 953,-130 953,-78 29,-78"/>
</g>
<g id="clust10" class="cluster">
<title>cluster_SharedModule_exports</title>
<polygon fill="none" stroke="#000000" points="16,-208 16,-260 961,-260 961,-208 16,-208"/>
</g>
<!-- DraggableDirective -->
<g id="node1" class="node">
<title>DraggableDirective</title>
<polygon fill="#ffffb3" stroke="#000000" points="945.385,-122 818.615,-122 818.615,-86 945.385,-86 945.385,-122"/>
<text text-anchor="middle" x="882" y="-99.8" font-family="Times,serif" font-size="14.00" fill="#000000">DraggableDirective</text>
</g>
<!-- SharedModule -->
<g id="node7" class="node">
<title>SharedModule</title>
<polygon fill="#8dd3c7" stroke="#000000" points="465.4231,-187 462.4231,-191 441.4231,-191 438.4231,-187 366.5769,-187 366.5769,-151 465.4231,-151 465.4231,-187"/>
<text text-anchor="middle" x="416" y="-164.8" font-family="Times,serif" font-size="14.00" fill="#000000">SharedModule</text>
</g>
<!-- DraggableDirective&#45;&gt;SharedModule -->
<g id="edge1" class="edge">
<title>DraggableDirective&#45;&gt;SharedModule</title>
<path fill="none" stroke="#000000" d="M904.4807,-122.2222C904.4807,-140.8285 904.4807,-167 904.4807,-167 904.4807,-167 475.5263,-167 475.5263,-167"/>
<polygon fill="#000000" stroke="#000000" points="475.5264,-163.5001 465.5263,-167 475.5263,-170.5001 475.5264,-163.5001"/>
</g>
<!-- LoadingTableComponent -->
<g id="node2" class="node">
<title>LoadingTableComponent</title>
<polygon fill="#ffffb3" stroke="#000000" points="800.8627,-122 641.1373,-122 641.1373,-86 800.8627,-86 800.8627,-122"/>
<text text-anchor="middle" x="721" y="-99.8" font-family="Times,serif" font-size="14.00" fill="#000000">LoadingTableComponent</text>
</g>
<!-- LoadingTableComponent&#45;&gt;SharedModule -->
<g id="edge2" class="edge">
<title>LoadingTableComponent&#45;&gt;SharedModule</title>
<path fill="none" stroke="#000000" d="M747.7271,-122.0336C747.7271,-139.0597 747.7271,-162 747.7271,-162 747.7271,-162 475.3047,-162 475.3047,-162"/>
<polygon fill="#000000" stroke="#000000" points="475.3047,-158.5001 465.3047,-162 475.3047,-165.5001 475.3047,-158.5001"/>
</g>
<!-- ModalComponent -->
<g id="node3" class="node">
<title>ModalComponent</title>
<polygon fill="#ffffb3" stroke="#000000" points="622.8823,-122 505.1177,-122 505.1177,-86 622.8823,-86 622.8823,-122"/>
<text text-anchor="middle" x="564" y="-99.8" font-family="Times,serif" font-size="14.00" fill="#000000">ModalComponent</text>
</g>
<!-- ModalComponent&#45;&gt;SharedModule -->
<g id="edge3" class="edge">
<title>ModalComponent&#45;&gt;SharedModule</title>
<path fill="none" stroke="#000000" d="M544.353,-122.2396C544.353,-137.5706 544.353,-157 544.353,-157 544.353,-157 475.2575,-157 475.2575,-157"/>
<polygon fill="#000000" stroke="#000000" points="475.2576,-153.5001 465.2575,-157 475.2575,-160.5001 475.2576,-153.5001"/>
</g>
<!-- ProgressBarComponent -->
<g id="node4" class="node">
<title>ProgressBarComponent</title>
<polygon fill="#ffffb3" stroke="#000000" points="486.752,-122 337.248,-122 337.248,-86 486.752,-86 486.752,-122"/>
<text text-anchor="middle" x="412" y="-99.8" font-family="Times,serif" font-size="14.00" fill="#000000">ProgressBarComponent</text>
</g>
<!-- ProgressBarComponent&#45;&gt;SharedModule -->
<g id="edge4" class="edge">
<title>ProgressBarComponent&#45;&gt;SharedModule</title>
<path fill="none" stroke="#000000" d="M416,-122.1061C416,-122.1061 416,-140.991 416,-140.991"/>
<polygon fill="#000000" stroke="#000000" points="412.5001,-140.9909 416,-150.991 419.5001,-140.991 412.5001,-140.9909"/>
</g>
<!-- ToastrComponent -->
<g id="node5" class="node">
<title>ToastrComponent</title>
<polygon fill="#ffffb3" stroke="#000000" points="319.5954,-122 202.4046,-122 202.4046,-86 319.5954,-86 319.5954,-122"/>
<text text-anchor="middle" x="261" y="-99.8" font-family="Times,serif" font-size="14.00" fill="#000000">ToastrComponent</text>
</g>
<!-- ToastrComponent&#45;&gt;SharedModule -->
<g id="edge5" class="edge">
<title>ToastrComponent&#45;&gt;SharedModule</title>
<path fill="none" stroke="#000000" d="M276.3492,-122.0091C276.3492,-138.0494 276.3492,-159 276.3492,-159 276.3492,-159 356.7644,-159 356.7644,-159"/>
<polygon fill="#000000" stroke="#000000" points="356.7644,-162.5001 366.7644,-159 356.7643,-155.5001 356.7644,-162.5001"/>
</g>
<!-- UserDetailsComponent -->
<g id="node6" class="node">
<title>UserDetailsComponent</title>
<polygon fill="#ffffb3" stroke="#000000" points="184.9116,-122 37.0884,-122 37.0884,-86 184.9116,-86 184.9116,-122"/>
<text text-anchor="middle" x="111" y="-99.8" font-family="Times,serif" font-size="14.00" fill="#000000">UserDetailsComponent</text>
</g>
<!-- UserDetailsComponent&#45;&gt;SharedModule -->
<g id="edge6" class="edge">
<title>UserDetailsComponent&#45;&gt;SharedModule</title>
<path fill="none" stroke="#000000" d="M179.5805,-122.2667C179.5805,-140.5552 179.5805,-166 179.5805,-166 179.5805,-166 356.7265,-166 356.7265,-166"/>
<polygon fill="#000000" stroke="#000000" points="356.7265,-169.5001 366.7265,-166 356.7265,-162.5001 356.7265,-169.5001"/>
</g>
<!-- DraggableDirective  -->
<g id="node8" class="node">
<title>DraggableDirective </title>
<polygon fill="#fb8072" stroke="#000000" points="952.8845,-252 823.1155,-252 823.1155,-216 952.8845,-216 952.8845,-252"/>
<text text-anchor="middle" x="888" y="-229.8" font-family="Times,serif" font-size="14.00" fill="#000000">DraggableDirective </text>
</g>
<!-- SharedModule&#45;&gt;DraggableDirective  -->
<g id="edge7" class="edge">
<title>SharedModule&#45;&gt;DraggableDirective </title>
<path fill="none" stroke="#000000" stroke-dasharray="5,2" d="M465.63,-172C582.2122,-172 863.7693,-172 863.7693,-172 863.7693,-172 863.7693,-205.7333 863.7693,-205.7333"/>
<polygon fill="#000000" stroke="#000000" points="860.2694,-205.7333 863.7693,-215.7333 867.2694,-205.7333 860.2694,-205.7333"/>
</g>
<!-- LoadingTableComponent  -->
<g id="node9" class="node">
<title>LoadingTableComponent </title>
<polygon fill="#fb8072" stroke="#000000" points="804.863,-252 641.137,-252 641.137,-216 804.863,-216 804.863,-252"/>
<text text-anchor="middle" x="723" y="-229.8" font-family="Times,serif" font-size="14.00" fill="#000000">LoadingTableComponent </text>
</g>
<!-- SharedModule&#45;&gt;LoadingTableComponent  -->
<g id="edge8" class="edge">
<title>SharedModule&#45;&gt;LoadingTableComponent </title>
<path fill="none" stroke="#000000" stroke-dasharray="5,2" d="M465.4734,-177C545.5097,-177 694.5229,-177 694.5229,-177 694.5229,-177 694.5229,-205.9648 694.5229,-205.9648"/>
<polygon fill="#000000" stroke="#000000" points="691.023,-205.9648 694.5229,-215.9648 698.023,-205.9649 691.023,-205.9648"/>
</g>
<!-- ModalComponent  -->
<g id="node10" class="node">
<title>ModalComponent </title>
<polygon fill="#fb8072" stroke="#000000" points="623.8828,-252 502.1172,-252 502.1172,-216 623.8828,-216 623.8828,-252"/>
<text text-anchor="middle" x="563" y="-229.8" font-family="Times,serif" font-size="14.00" fill="#000000">ModalComponent </text>
</g>
<!-- SharedModule&#45;&gt;ModalComponent  -->
<g id="edge9" class="edge">
<title>SharedModule&#45;&gt;ModalComponent </title>
<path fill="none" stroke="#000000" stroke-dasharray="5,2" d="M465.3929,-182C514.8446,-182 583.647,-182 583.647,-182 583.647,-182 583.647,-205.8129 583.647,-205.8129"/>
<polygon fill="#000000" stroke="#000000" points="580.1471,-205.8129 583.647,-215.8129 587.1471,-205.813 580.1471,-205.8129"/>
</g>
<!-- ProgressBarComponent  -->
<g id="node11" class="node">
<title>ProgressBarComponent </title>
<polygon fill="#fb8072" stroke="#000000" points="484.752,-252 331.248,-252 331.248,-216 484.752,-216 484.752,-252"/>
<text text-anchor="middle" x="408" y="-229.8" font-family="Times,serif" font-size="14.00" fill="#000000">ProgressBarComponent </text>
</g>
<!-- SharedModule&#45;&gt;ProgressBarComponent  -->
<g id="edge10" class="edge">
<title>SharedModule&#45;&gt;ProgressBarComponent </title>
<path fill="none" stroke="#000000" stroke-dasharray="5,2" d="M416,-187.1061C416,-187.1061 416,-205.991 416,-205.991"/>
<polygon fill="#000000" stroke="#000000" points="412.5001,-205.9909 416,-215.991 419.5001,-205.991 412.5001,-205.9909"/>
</g>
<!-- ToastrComponent  -->
<g id="node12" class="node">
<title>ToastrComponent </title>
<polygon fill="#fb8072" stroke="#000000" points="313.0961,-252 192.9039,-252 192.9039,-216 313.0961,-216 313.0961,-252"/>
<text text-anchor="middle" x="253" y="-229.8" font-family="Times,serif" font-size="14.00" fill="#000000">ToastrComponent </text>
</g>
<!-- SharedModule&#45;&gt;ToastrComponent  -->
<g id="edge11" class="edge">
<title>SharedModule&#45;&gt;ToastrComponent </title>
<path fill="none" stroke="#000000" stroke-dasharray="5,2" d="M366.3373,-180C314.1036,-180 239.4008,-180 239.4008,-180 239.4008,-180 239.4008,-205.7181 239.4008,-205.7181"/>
<polygon fill="#000000" stroke="#000000" points="235.9009,-205.718 239.4008,-215.7181 242.9009,-205.7181 235.9009,-205.718"/>
</g>
<!-- UserDetailsComponent  -->
<g id="node13" class="node">
<title>UserDetailsComponent </title>
<polygon fill="#fb8072" stroke="#000000" points="174.411,-252 23.589,-252 23.589,-216 174.411,-216 174.411,-252"/>
<text text-anchor="middle" x="99" y="-229.8" font-family="Times,serif" font-size="14.00" fill="#000000">UserDetailsComponent </text>
</g>
<!-- SharedModule&#45;&gt;UserDetailsComponent  -->
<g id="edge12" class="edge">
<title>SharedModule&#45;&gt;UserDetailsComponent </title>
<path fill="none" stroke="#000000" stroke-dasharray="5,2" d="M366.5169,-173C278.9601,-173 105.875,-173 105.875,-173 105.875,-173 105.875,-205.698 105.875,-205.698"/>
<polygon fill="#000000" stroke="#000000" points="102.3751,-205.698 105.875,-215.698 109.3751,-205.698 102.3751,-205.698"/>
</g>
</g>
</svg>
