<?xml version="1.0" encoding="UTF-8" standalone="no"?>
<!DOCTYPE svg PUBLIC "-//W3C//DTD SVG 1.1//EN"
 "http://www.w3.org/Graphics/SVG/1.1/DTD/svg11.dtd">
<!-- Generated by graphviz version 2.40.1 (20161225.0304)
 -->
<!-- Title: dependencies Pages: 1 -->
<svg width="814pt" height="284pt"
 viewBox="0.00 0.00 814.00 284.00" xmlns="http://www.w3.org/2000/svg" xmlns:xlink="http://www.w3.org/1999/xlink">
<g id="graph0" class="graph" transform="scale(1 1) rotate(0) translate(4 280)">
<title>dependencies</title>
<polygon fill="#ffffff" stroke="transparent" points="-4,4 -4,-280 810,-280 810,4 -4,4"/>
<text text-anchor="start" x="382.0091" y="-42.4" font-family="sans-serif" font-weight="bold" font-size="14.00" fill="#000000">Legend</text>
<polygon fill="#ffffb3" stroke="transparent" points="169,-10 169,-30 189,-30 189,-10 169,-10"/>
<text text-anchor="start" x="192.629" y="-15.4" font-family="sans-serif" font-size="14.00" fill="#000000"> &#160;Declarations</text>
<polygon fill="#8dd3c7" stroke="transparent" points="282,-10 282,-30 302,-30 302,-10 282,-10"/>
<text text-anchor="start" x="305.7251" y="-15.4" font-family="sans-serif" font-size="14.00" fill="#000000"> &#160;Module</text>
<polygon fill="#80b1d3" stroke="transparent" points="368,-10 368,-30 388,-30 388,-10 368,-10"/>
<text text-anchor="start" x="391.7812" y="-15.4" font-family="sans-serif" font-size="14.00" fill="#000000"> &#160;Bootstrap</text>
<polygon fill="#fdb462" stroke="transparent" points="465,-10 465,-30 485,-30 485,-10 465,-10"/>
<text text-anchor="start" x="488.6732" y="-15.4" font-family="sans-serif" font-size="14.00" fill="#000000"> &#160;Providers</text>
<polygon fill="#fb8072" stroke="transparent" points="561,-10 561,-30 581,-30 581,-10 561,-10"/>
<text text-anchor="start" x="584.7258" y="-15.4" font-family="sans-serif" font-size="14.00" fill="#000000"> &#160;Exports</text>
<g id="clust1" class="cluster">
<title>cluster_SharedModule</title>
<polygon fill="none" stroke="#000000" stroke-dasharray="1,5" points="8,-70 8,-268 798,-268 798,-70 8,-70"/>
</g>
<g id="clust2" class="cluster">
<title>cluster_SharedModule_declarations</title>
<polygon fill="none" stroke="#000000" points="25,-78 25,-130 781,-130 781,-78 25,-78"/>
</g>
<g id="clust9" class="cluster">
<title>cluster_SharedModule_exports</title>
<polygon fill="none" stroke="#000000" points="16,-208 16,-260 790,-260 790,-208 16,-208"/>
</g>
<!-- DraggableDirective -->
<g id="node1" class="node">
<title>DraggableDirective</title>
<polygon fill="#ffffb3" stroke="#000000" points="773.385,-122 646.615,-122 646.615,-86 773.385,-86 773.385,-122"/>
<text text-anchor="middle" x="710" y="-99.8" font-family="Times,serif" font-size="14.00" fill="#000000">DraggableDirective</text>
</g>
<!-- SharedModule -->
<g id="node6" class="node">
<title>SharedModule</title>
<polygon fill="#8dd3c7" stroke="#000000" points="441.4231,-187 438.4231,-191 417.4231,-191 414.4231,-187 342.5769,-187 342.5769,-151 441.4231,-151 441.4231,-187"/>
<text text-anchor="middle" x="392" y="-164.8" font-family="Times,serif" font-size="14.00" fill="#000000">SharedModule</text>
</g>
<!-- DraggableDirective&#45;&gt;SharedModule -->
<g id="edge1" class="edge">
<title>DraggableDirective&#45;&gt;SharedModule</title>
<path fill="none" stroke="#000000" d="M732.8141,-122.2667C732.8141,-140.5552 732.8141,-166 732.8141,-166 732.8141,-166 451.5573,-166 451.5573,-166"/>
<polygon fill="#000000" stroke="#000000" points="451.5573,-162.5001 441.5573,-166 451.5573,-169.5001 451.5573,-162.5001"/>
</g>
<!-- LoadingTableComponent -->
<g id="node2" class="node">
<title>LoadingTableComponent</title>
<polygon fill="#ffffb3" stroke="#000000" points="628.8627,-122 469.1373,-122 469.1373,-86 628.8627,-86 628.8627,-122"/>
<text text-anchor="middle" x="549" y="-99.8" font-family="Times,serif" font-size="14.00" fill="#000000">LoadingTableComponent</text>
</g>
<!-- LoadingTableComponent&#45;&gt;SharedModule -->
<g id="edge2" class="edge">
<title>LoadingTableComponent&#45;&gt;SharedModule</title>
<path fill="none" stroke="#000000" d="M576.0604,-122.0091C576.0604,-138.0494 576.0604,-159 576.0604,-159 576.0604,-159 451.3248,-159 451.3248,-159"/>
<polygon fill="#000000" stroke="#000000" points="451.3249,-155.5001 441.3248,-159 451.3248,-162.5001 451.3249,-155.5001"/>
</g>
<!-- ModalComponent -->
<g id="node3" class="node">
<title>ModalComponent</title>
<polygon fill="#ffffb3" stroke="#000000" points="450.8823,-122 333.1177,-122 333.1177,-86 450.8823,-86 450.8823,-122"/>
<text text-anchor="middle" x="392" y="-99.8" font-family="Times,serif" font-size="14.00" fill="#000000">ModalComponent</text>
</g>
<!-- ModalComponent&#45;&gt;SharedModule -->
<g id="edge3" class="edge">
<title>ModalComponent&#45;&gt;SharedModule</title>
<path fill="none" stroke="#000000" d="M392,-122.1061C392,-122.1061 392,-140.991 392,-140.991"/>
<polygon fill="#000000" stroke="#000000" points="388.5001,-140.9909 392,-150.991 395.5001,-140.991 388.5001,-140.9909"/>
</g>
<!-- ToastrComponent -->
<g id="node4" class="node">
<title>ToastrComponent</title>
<polygon fill="#ffffb3" stroke="#000000" points="315.5954,-122 198.4046,-122 198.4046,-86 315.5954,-86 315.5954,-122"/>
<text text-anchor="middle" x="257" y="-99.8" font-family="Times,serif" font-size="14.00" fill="#000000">ToastrComponent</text>
</g>
<!-- ToastrComponent&#45;&gt;SharedModule -->
<g id="edge4" class="edge">
<title>ToastrComponent&#45;&gt;SharedModule</title>
<path fill="none" stroke="#000000" d="M275.0159,-122.0091C275.0159,-138.0494 275.0159,-159 275.0159,-159 275.0159,-159 332.7273,-159 332.7273,-159"/>
<polygon fill="#000000" stroke="#000000" points="332.7273,-162.5001 342.7273,-159 332.7272,-155.5001 332.7273,-162.5001"/>
</g>
<!-- UserDetailsComponent -->
<g id="node5" class="node">
<title>UserDetailsComponent</title>
<polygon fill="#ffffb3" stroke="#000000" points="180.9116,-122 33.0884,-122 33.0884,-86 180.9116,-86 180.9116,-122"/>
<text text-anchor="middle" x="107" y="-99.8" font-family="Times,serif" font-size="14.00" fill="#000000">UserDetailsComponent</text>
</g>
<!-- UserDetailsComponent&#45;&gt;SharedModule -->
<g id="edge5" class="edge">
<title>UserDetailsComponent&#45;&gt;SharedModule</title>
<path fill="none" stroke="#000000" d="M127.4018,-122.2667C127.4018,-140.5552 127.4018,-166 127.4018,-166 127.4018,-166 332.5415,-166 332.5415,-166"/>
<polygon fill="#000000" stroke="#000000" points="332.5415,-169.5001 342.5415,-166 332.5415,-162.5001 332.5415,-169.5001"/>
</g>
<!-- DraggableDirective  -->
<g id="node7" class="node">
<title>DraggableDirective </title>
<polygon fill="#fb8072" stroke="#000000" points="781.8845,-252 652.1155,-252 652.1155,-216 781.8845,-216 781.8845,-252"/>
<text text-anchor="middle" x="717" y="-229.8" font-family="Times,serif" font-size="14.00" fill="#000000">DraggableDirective </text>
</g>
<!-- SharedModule&#45;&gt;DraggableDirective  -->
<g id="edge6" class="edge">
<title>SharedModule&#45;&gt;DraggableDirective </title>
<path fill="none" stroke="#000000" stroke-dasharray="5,2" d="M441.2745,-173C526.5073,-173 692.4359,-173 692.4359,-173 692.4359,-173 692.4359,-205.698 692.4359,-205.698"/>
<polygon fill="#000000" stroke="#000000" points="688.936,-205.698 692.4359,-215.698 695.936,-205.698 688.936,-205.698"/>
</g>
<!-- LoadingTableComponent  -->
<g id="node8" class="node">
<title>LoadingTableComponent </title>
<polygon fill="#fb8072" stroke="#000000" points="633.863,-252 470.137,-252 470.137,-216 633.863,-216 633.863,-252"/>
<text text-anchor="middle" x="552" y="-229.8" font-family="Times,serif" font-size="14.00" fill="#000000">LoadingTableComponent </text>
</g>
<!-- SharedModule&#45;&gt;LoadingTableComponent  -->
<g id="edge7" class="edge">
<title>SharedModule&#45;&gt;LoadingTableComponent </title>
<path fill="none" stroke="#000000" stroke-dasharray="5,2" d="M441.2234,-180C478.449,-180 523.1896,-180 523.1896,-180 523.1896,-180 523.1896,-205.7181 523.1896,-205.7181"/>
<polygon fill="#000000" stroke="#000000" points="519.6897,-205.718 523.1896,-215.7181 526.6897,-205.7181 519.6897,-205.718"/>
</g>
<!-- ModalComponent  -->
<g id="node9" class="node">
<title>ModalComponent </title>
<polygon fill="#fb8072" stroke="#000000" points="452.8828,-252 331.1172,-252 331.1172,-216 452.8828,-216 452.8828,-252"/>
<text text-anchor="middle" x="392" y="-229.8" font-family="Times,serif" font-size="14.00" fill="#000000">ModalComponent </text>
</g>
<!-- SharedModule&#45;&gt;ModalComponent  -->
<g id="edge8" class="edge">
<title>SharedModule&#45;&gt;ModalComponent </title>
<path fill="none" stroke="#000000" stroke-dasharray="5,2" d="M392,-187.1061C392,-187.1061 392,-205.991 392,-205.991"/>
<polygon fill="#000000" stroke="#000000" points="388.5001,-205.9909 392,-215.991 395.5001,-205.991 388.5001,-205.9909"/>
</g>
<!-- ToastrComponent  -->
<g id="node10" class="node">
<title>ToastrComponent </title>
<polygon fill="#fb8072" stroke="#000000" points="313.0961,-252 192.9039,-252 192.9039,-216 313.0961,-216 313.0961,-252"/>
<text text-anchor="middle" x="253" y="-229.8" font-family="Times,serif" font-size="14.00" fill="#000000">ToastrComponent </text>
</g>
<!-- SharedModule&#45;&gt;ToastrComponent  -->
<g id="edge9" class="edge">
<title>SharedModule&#45;&gt;ToastrComponent </title>
<path fill="none" stroke="#000000" stroke-dasharray="5,2" d="M342.446,-180C297.0064,-180 236.7341,-180 236.7341,-180 236.7341,-180 236.7341,-205.7181 236.7341,-205.7181"/>
<polygon fill="#000000" stroke="#000000" points="233.2342,-205.718 236.7341,-215.7181 240.2342,-205.7181 233.2342,-205.718"/>
</g>
<!-- UserDetailsComponent  -->
<g id="node11" class="node">
<title>UserDetailsComponent </title>
<polygon fill="#fb8072" stroke="#000000" points="174.411,-252 23.589,-252 23.589,-216 174.411,-216 174.411,-252"/>
<text text-anchor="middle" x="99" y="-229.8" font-family="Times,serif" font-size="14.00" fill="#000000">UserDetailsComponent </text>
</g>
<!-- SharedModule&#45;&gt;UserDetailsComponent  -->
<g id="edge10" class="edge">
<title>SharedModule&#45;&gt;UserDetailsComponent </title>
<path fill="none" stroke="#000000" stroke-dasharray="5,2" d="M342.6178,-173C254.7405,-173 80.3482,-173 80.3482,-173 80.3482,-173 80.3482,-205.698 80.3482,-205.698"/>
<polygon fill="#000000" stroke="#000000" points="76.8481,-205.698 80.3482,-215.698 83.8481,-205.698 76.8481,-205.698"/>
</g>
</g>
</svg>
