<?xml version="1.0" encoding="UTF-8" standalone="no"?>
<!DOCTYPE svg PUBLIC "-//W3C//DTD SVG 1.1//EN"
 "http://www.w3.org/Graphics/SVG/1.1/DTD/svg11.dtd">
<!-- Generated by graphviz version 2.40.1 (20161225.0304)
 -->
<!-- Title: dependencies Pages: 1 -->
<svg width="1974pt" height="284pt"
 viewBox="0.00 0.00 1974.00 284.00" xmlns="http://www.w3.org/2000/svg" xmlns:xlink="http://www.w3.org/1999/xlink">
<g id="graph0" class="graph" transform="scale(1 1) rotate(0) translate(4 280)">
<title>dependencies</title>
<polygon fill="#ffffff" stroke="transparent" points="-4,4 -4,-280 1970,-280 1970,4 -4,4"/>
<text text-anchor="start" x="962.0091" y="-42.4" font-family="sans-serif" font-weight="bold" font-size="14.00" fill="#000000">Legend</text>
<polygon fill="#ffffb3" stroke="transparent" points="749,-10 749,-30 769,-30 769,-10 749,-10"/>
<text text-anchor="start" x="772.629" y="-15.4" font-family="sans-serif" font-size="14.00" fill="#000000"> &#160;Declarations</text>
<polygon fill="#8dd3c7" stroke="transparent" points="862,-10 862,-30 882,-30 882,-10 862,-10"/>
<text text-anchor="start" x="885.7251" y="-15.4" font-family="sans-serif" font-size="14.00" fill="#000000"> &#160;Module</text>
<polygon fill="#80b1d3" stroke="transparent" points="948,-10 948,-30 968,-30 968,-10 948,-10"/>
<text text-anchor="start" x="971.7812" y="-15.4" font-family="sans-serif" font-size="14.00" fill="#000000"> &#160;Bootstrap</text>
<polygon fill="#fdb462" stroke="transparent" points="1045,-10 1045,-30 1065,-30 1065,-10 1045,-10"/>
<text text-anchor="start" x="1068.6732" y="-15.4" font-family="sans-serif" font-size="14.00" fill="#000000"> &#160;Providers</text>
<polygon fill="#fb8072" stroke="transparent" points="1141,-10 1141,-30 1161,-30 1161,-10 1141,-10"/>
<text text-anchor="start" x="1164.7258" y="-15.4" font-family="sans-serif" font-size="14.00" fill="#000000"> &#160;Exports</text>
<g id="clust1" class="cluster">
<title>cluster_TicketModule</title>
<polygon fill="none" stroke="#000000" stroke-dasharray="1,5" points="8,-70 8,-268 1958,-268 1958,-70 8,-70"/>
</g>
<g id="clust2" class="cluster">
<title>cluster_TicketModule_declarations</title>
<polygon fill="none" stroke="#000000" points="138,-78 138,-130 1950,-130 1950,-78 138,-78"/>
</g>
<g id="clust15" class="cluster">
<title>cluster_TicketModule_imports</title>
<polygon fill="none" stroke="#000000" points="16,-78 16,-130 130,-130 130,-78 16,-78"/>
</g>
<g id="clust16" class="cluster">
<title>cluster_TicketModule_exports</title>
<polygon fill="none" stroke="#000000" points="889,-208 889,-260 1031,-260 1031,-208 889,-208"/>
</g>
<!-- ActionsComponent -->
<g id="node1" class="node">
<title>ActionsComponent</title>
<polygon fill="#ffffb3" stroke="#000000" points="1942.3795,-122 1817.6205,-122 1817.6205,-86 1942.3795,-86 1942.3795,-122"/>
<text text-anchor="middle" x="1880" y="-99.8" font-family="Times,serif" font-size="14.00" fill="#000000">ActionsComponent</text>
</g>
<!-- TicketModule -->
<g id="node13" class="node">
<title>TicketModule</title>
<polygon fill="#8dd3c7" stroke="#000000" points="1007.8133,-187 1004.8133,-191 983.8133,-191 980.8133,-187 912.1867,-187 912.1867,-151 1007.8133,-151 1007.8133,-187"/>
<text text-anchor="middle" x="960" y="-164.8" font-family="Times,serif" font-size="14.00" fill="#000000">TicketModule</text>
</g>
<!-- ActionsComponent&#45;&gt;TicketModule -->
<g id="edge1" class="edge">
<title>ActionsComponent&#45;&gt;TicketModule</title>
<path fill="none" stroke="#000000" d="M1880,-122.0908C1880,-145.1328 1880,-182 1880,-182 1880,-182 1017.8464,-182 1017.8464,-182"/>
<polygon fill="#000000" stroke="#000000" points="1017.8464,-178.5001 1007.8464,-182 1017.8464,-185.5001 1017.8464,-178.5001"/>
</g>
<!-- BranchInfoComponent -->
<g id="node2" class="node">
<title>BranchInfoComponent</title>
<polygon fill="#ffffb3" stroke="#000000" points="1799.58,-122 1654.42,-122 1654.42,-86 1799.58,-86 1799.58,-122"/>
<text text-anchor="middle" x="1727" y="-99.8" font-family="Times,serif" font-size="14.00" fill="#000000">BranchInfoComponent</text>
</g>
<!-- BranchInfoComponent&#45;&gt;TicketModule -->
<g id="edge2" class="edge">
<title>BranchInfoComponent&#45;&gt;TicketModule</title>
<path fill="none" stroke="#000000" d="M1727,-122.0449C1727,-143.6623 1727,-177 1727,-177 1727,-177 1017.6895,-177 1017.6895,-177"/>
<polygon fill="#000000" stroke="#000000" points="1017.6895,-173.5001 1007.6895,-177 1017.6895,-180.5001 1017.6895,-173.5001"/>
</g>
<!-- CrucibleComponent -->
<g id="node3" class="node">
<title>CrucibleComponent</title>
<polygon fill="#ffffb3" stroke="#000000" points="1636.5408,-122 1507.4592,-122 1507.4592,-86 1636.5408,-86 1636.5408,-122"/>
<text text-anchor="middle" x="1572" y="-99.8" font-family="Times,serif" font-size="14.00" fill="#000000">CrucibleComponent</text>
</g>
<!-- CrucibleComponent&#45;&gt;TicketModule -->
<g id="edge3" class="edge">
<title>CrucibleComponent&#45;&gt;TicketModule</title>
<path fill="none" stroke="#000000" d="M1572,-122.2228C1572,-142.3652 1572,-172 1572,-172 1572,-172 1017.7677,-172 1017.7677,-172"/>
<polygon fill="#000000" stroke="#000000" points="1017.7677,-168.5001 1007.7677,-172 1017.7677,-175.5001 1017.7677,-168.5001"/>
</g>
<!-- DatesComponent -->
<g id="node4" class="node">
<title>DatesComponent</title>
<polygon fill="#ffffb3" stroke="#000000" points="1489.7036,-122 1376.2964,-122 1376.2964,-86 1489.7036,-86 1489.7036,-122"/>
<text text-anchor="middle" x="1433" y="-99.8" font-family="Times,serif" font-size="14.00" fill="#000000">DatesComponent</text>
</g>
<!-- DatesComponent&#45;&gt;TicketModule -->
<g id="edge4" class="edge">
<title>DatesComponent&#45;&gt;TicketModule</title>
<path fill="none" stroke="#000000" d="M1433,-122.2222C1433,-140.8285 1433,-167 1433,-167 1433,-167 1017.9568,-167 1017.9568,-167"/>
<polygon fill="#000000" stroke="#000000" points="1017.9568,-163.5001 1007.9568,-167 1017.9567,-170.5001 1017.9568,-163.5001"/>
</g>
<!-- QaGeneratorComponent -->
<g id="node5" class="node">
<title>QaGeneratorComponent</title>
<polygon fill="#ffffb3" stroke="#000000" points="1358.6163,-122 1205.3837,-122 1205.3837,-86 1358.6163,-86 1358.6163,-122"/>
<text text-anchor="middle" x="1282" y="-99.8" font-family="Times,serif" font-size="14.00" fill="#000000">QaGeneratorComponent</text>
</g>
<!-- QaGeneratorComponent&#45;&gt;TicketModule -->
<g id="edge5" class="edge">
<title>QaGeneratorComponent&#45;&gt;TicketModule</title>
<path fill="none" stroke="#000000" d="M1282,-122.0336C1282,-139.0597 1282,-162 1282,-162 1282,-162 1017.859,-162 1017.859,-162"/>
<polygon fill="#000000" stroke="#000000" points="1017.859,-158.5001 1007.859,-162 1017.8589,-165.5001 1017.859,-158.5001"/>
</g>
<!-- SetPingsComponent -->
<g id="node6" class="node">
<title>SetPingsComponent</title>
<polygon fill="#ffffb3" stroke="#000000" points="1187.3384,-122 1056.6616,-122 1056.6616,-86 1187.3384,-86 1187.3384,-122"/>
<text text-anchor="middle" x="1122" y="-99.8" font-family="Times,serif" font-size="14.00" fill="#000000">SetPingsComponent</text>
</g>
<!-- SetPingsComponent&#45;&gt;TicketModule -->
<g id="edge6" class="edge">
<title>SetPingsComponent&#45;&gt;TicketModule</title>
<path fill="none" stroke="#000000" d="M1122,-122.2396C1122,-137.5706 1122,-157 1122,-157 1122,-157 1017.7291,-157 1017.7291,-157"/>
<polygon fill="#000000" stroke="#000000" points="1017.7292,-153.5001 1007.7291,-157 1017.7291,-160.5001 1017.7292,-153.5001"/>
</g>
<!-- TicketDetailsComponent -->
<g id="node7" class="node">
<title>TicketDetailsComponent</title>
<polygon fill="#ffffb3" stroke="#000000" points="1038.2478,-122 881.7522,-122 881.7522,-86 1038.2478,-86 1038.2478,-122"/>
<text text-anchor="middle" x="960" y="-99.8" font-family="Times,serif" font-size="14.00" fill="#000000">TicketDetailsComponent</text>
</g>
<!-- TicketDetailsComponent&#45;&gt;TicketModule -->
<g id="edge7" class="edge">
<title>TicketDetailsComponent&#45;&gt;TicketModule</title>
<path fill="none" stroke="#000000" d="M960,-122.1061C960,-122.1061 960,-140.991 960,-140.991"/>
<polygon fill="#000000" stroke="#000000" points="956.5001,-140.9909 960,-150.991 963.5001,-140.991 956.5001,-140.9909"/>
</g>
<!-- TicketStatusComponent -->
<g id="node8" class="node">
<title>TicketStatusComponent</title>
<polygon fill="#ffffb3" stroke="#000000" points="863.8187,-122 712.1813,-122 712.1813,-86 863.8187,-86 863.8187,-122"/>
<text text-anchor="middle" x="788" y="-99.8" font-family="Times,serif" font-size="14.00" fill="#000000">TicketStatusComponent</text>
</g>
<!-- TicketStatusComponent&#45;&gt;TicketModule -->
<g id="edge8" class="edge">
<title>TicketStatusComponent&#45;&gt;TicketModule</title>
<path fill="none" stroke="#000000" d="M788,-122.2396C788,-137.5706 788,-157 788,-157 788,-157 902.0884,-157 902.0884,-157"/>
<polygon fill="#000000" stroke="#000000" points="902.0884,-160.5001 912.0884,-157 902.0884,-153.5001 902.0884,-160.5001"/>
</g>
<!-- TicketsComponent -->
<g id="node9" class="node">
<title>TicketsComponent</title>
<polygon fill="#ffffb3" stroke="#000000" points="694.0409,-122 571.9591,-122 571.9591,-86 694.0409,-86 694.0409,-122"/>
<text text-anchor="middle" x="633" y="-99.8" font-family="Times,serif" font-size="14.00" fill="#000000">TicketsComponent</text>
</g>
<!-- TicketsComponent&#45;&gt;TicketModule -->
<g id="edge9" class="edge">
<title>TicketsComponent&#45;&gt;TicketModule</title>
<path fill="none" stroke="#000000" d="M633,-122.0336C633,-139.0597 633,-162 633,-162 633,-162 902.1012,-162 902.1012,-162"/>
<polygon fill="#000000" stroke="#000000" points="902.1012,-165.5001 912.1012,-162 902.1012,-158.5001 902.1012,-165.5001"/>
</g>
<!-- WatchersComponent -->
<g id="node10" class="node">
<title>WatchersComponent</title>
<polygon fill="#ffffb3" stroke="#000000" points="554.1867,-122 419.8133,-122 419.8133,-86 554.1867,-86 554.1867,-122"/>
<text text-anchor="middle" x="487" y="-99.8" font-family="Times,serif" font-size="14.00" fill="#000000">WatchersComponent</text>
</g>
<!-- WatchersComponent&#45;&gt;TicketModule -->
<g id="edge10" class="edge">
<title>WatchersComponent&#45;&gt;TicketModule</title>
<path fill="none" stroke="#000000" d="M487,-122.2222C487,-140.8285 487,-167 487,-167 487,-167 902.0432,-167 902.0432,-167"/>
<polygon fill="#000000" stroke="#000000" points="902.0433,-170.5001 912.0432,-167 902.0432,-163.5001 902.0433,-170.5001"/>
</g>
<!-- WorkLogComponent -->
<g id="node11" class="node">
<title>WorkLogComponent</title>
<polygon fill="#ffffb3" stroke="#000000" points="401.7604,-122 266.2396,-122 266.2396,-86 401.7604,-86 401.7604,-122"/>
<text text-anchor="middle" x="334" y="-99.8" font-family="Times,serif" font-size="14.00" fill="#000000">WorkLogComponent</text>
</g>
<!-- WorkLogComponent&#45;&gt;TicketModule -->
<g id="edge11" class="edge">
<title>WorkLogComponent&#45;&gt;TicketModule</title>
<path fill="none" stroke="#000000" d="M334,-122.2228C334,-142.3652 334,-172 334,-172 334,-172 902.1767,-172 902.1767,-172"/>
<polygon fill="#000000" stroke="#000000" points="902.1767,-175.5001 912.1767,-172 902.1766,-168.5001 902.1767,-175.5001"/>
</g>
<!-- WorkTimePipe -->
<g id="node12" class="node">
<title>WorkTimePipe</title>
<polygon fill="#ffffb3" stroke="#000000" points="248.3119,-122 145.6881,-122 145.6881,-86 248.3119,-86 248.3119,-122"/>
<text text-anchor="middle" x="197" y="-99.8" font-family="Times,serif" font-size="14.00" fill="#000000">WorkTimePipe</text>
</g>
<!-- WorkTimePipe&#45;&gt;TicketModule -->
<g id="edge12" class="edge">
<title>WorkTimePipe&#45;&gt;TicketModule</title>
<path fill="none" stroke="#000000" d="M197,-122.0449C197,-143.6623 197,-177 197,-177 197,-177 902.2709,-177 902.2709,-177"/>
<polygon fill="#000000" stroke="#000000" points="902.271,-180.5001 912.2709,-177 902.2709,-173.5001 902.271,-180.5001"/>
</g>
<!-- TicketsComponent  -->
<g id="node15" class="node">
<title>TicketsComponent </title>
<polygon fill="#fb8072" stroke="#000000" points="1023.04,-252 896.96,-252 896.96,-216 1023.04,-216 1023.04,-252"/>
<text text-anchor="middle" x="960" y="-229.8" font-family="Times,serif" font-size="14.00" fill="#000000">TicketsComponent </text>
</g>
<!-- TicketModule&#45;&gt;TicketsComponent  -->
<g id="edge14" class="edge">
<title>TicketModule&#45;&gt;TicketsComponent </title>
<path fill="none" stroke="#000000" stroke-dasharray="5,2" d="M960,-187.1061C960,-187.1061 960,-205.991 960,-205.991"/>
<polygon fill="#000000" stroke="#000000" points="956.5001,-205.9909 960,-215.991 963.5001,-205.991 956.5001,-205.9909"/>
</g>
<!-- SharedModule -->
<g id="node14" class="node">
<title>SharedModule</title>
<polygon fill="#8dd3c7" stroke="#000000" points="122.4231,-122 119.4231,-126 98.4231,-126 95.4231,-122 23.5769,-122 23.5769,-86 122.4231,-86 122.4231,-122"/>
<text text-anchor="middle" x="73" y="-99.8" font-family="Times,serif" font-size="14.00" fill="#000000">SharedModule</text>
</g>
<!-- SharedModule&#45;&gt;TicketModule -->
<g id="edge13" class="edge">
<title>SharedModule&#45;&gt;TicketModule</title>
<path fill="none" stroke="#000000" d="M73,-122.0908C73,-145.1328 73,-182 73,-182 73,-182 902.311,-182 902.311,-182"/>
<polygon fill="#000000" stroke="#000000" points="902.3111,-185.5001 912.311,-182 902.311,-178.5001 902.3111,-185.5001"/>
</g>
</g>
</svg>
